<mxfile host="app.diagrams.net" modified="2023-03-26T19:24:39.931Z" agent="Mozilla/5.0 (Macintosh; Intel Mac OS X 10_15_7) AppleWebKit/605.1.15 (KHTML, like Gecko) Version/16.3 Safari/605.1.15" etag="PNQykoXZVsHvJBWtmspI" version="21.1.1" type="device">
  <diagram name="Page-1" id="f0uPbbfJWjeN17gMKR4H">
    <mxGraphModel dx="855" dy="558" grid="1" gridSize="10" guides="1" tooltips="1" connect="1" arrows="1" fold="1" page="1" pageScale="1" pageWidth="1169" pageHeight="827" math="0" shadow="0">
      <root>
        <mxCell id="0" />
        <mxCell id="1" parent="0" />
        <mxCell id="VYU8mX6tBPfPcrQHVXHe-8" style="edgeStyle=orthogonalEdgeStyle;rounded=0;orthogonalLoop=1;jettySize=auto;html=1;exitX=1;exitY=0.5;exitDx=0;exitDy=0;" edge="1" parent="1" source="VYU8mX6tBPfPcrQHVXHe-1" target="VYU8mX6tBPfPcrQHVXHe-9">
          <mxGeometry relative="1" as="geometry">
            <mxPoint x="320" y="190" as="targetPoint" />
          </mxGeometry>
        </mxCell>
        <mxCell id="VYU8mX6tBPfPcrQHVXHe-1" value="" style="rounded=0;whiteSpace=wrap;html=1;fillColor=#fff2cc;strokeColor=#d6b656;" vertex="1" parent="1">
          <mxGeometry x="160" y="80" width="120" height="60" as="geometry" />
        </mxCell>
        <mxCell id="VYU8mX6tBPfPcrQHVXHe-7" style="edgeStyle=orthogonalEdgeStyle;rounded=0;orthogonalLoop=1;jettySize=auto;html=1;exitX=1;exitY=0.5;exitDx=0;exitDy=0;entryX=0;entryY=0.5;entryDx=0;entryDy=0;" edge="1" parent="1" source="VYU8mX6tBPfPcrQHVXHe-2" target="VYU8mX6tBPfPcrQHVXHe-9">
          <mxGeometry relative="1" as="geometry">
            <mxPoint x="320" y="190" as="targetPoint" />
          </mxGeometry>
        </mxCell>
        <mxCell id="VYU8mX6tBPfPcrQHVXHe-2" value="" style="rounded=0;whiteSpace=wrap;html=1;fillColor=#fff2cc;strokeColor=#d6b656;" vertex="1" parent="1">
          <mxGeometry x="160" y="160" width="120" height="60" as="geometry" />
        </mxCell>
        <mxCell id="VYU8mX6tBPfPcrQHVXHe-6" style="edgeStyle=orthogonalEdgeStyle;rounded=0;orthogonalLoop=1;jettySize=auto;html=1;exitX=1;exitY=0.5;exitDx=0;exitDy=0;entryX=0.5;entryY=1;entryDx=0;entryDy=0;" edge="1" parent="1" source="VYU8mX6tBPfPcrQHVXHe-3" target="VYU8mX6tBPfPcrQHVXHe-9">
          <mxGeometry relative="1" as="geometry">
            <mxPoint x="320" y="190" as="targetPoint" />
          </mxGeometry>
        </mxCell>
        <mxCell id="VYU8mX6tBPfPcrQHVXHe-3" value="" style="rounded=0;whiteSpace=wrap;html=1;fillColor=#fff2cc;strokeColor=#d6b656;" vertex="1" parent="1">
          <mxGeometry x="160" y="240" width="120" height="60" as="geometry" />
        </mxCell>
        <mxCell id="VYU8mX6tBPfPcrQHVXHe-4" value="" style="rounded=0;whiteSpace=wrap;html=1;fillColor=#ffe6cc;strokeColor=#d79b00;" vertex="1" parent="1">
          <mxGeometry x="360" y="160" width="120" height="60" as="geometry" />
        </mxCell>
        <mxCell id="VYU8mX6tBPfPcrQHVXHe-10" style="edgeStyle=orthogonalEdgeStyle;rounded=0;orthogonalLoop=1;jettySize=auto;html=1;exitX=1;exitY=0.5;exitDx=0;exitDy=0;entryX=-0.023;entryY=0.5;entryDx=0;entryDy=0;entryPerimeter=0;" edge="1" parent="1" source="VYU8mX6tBPfPcrQHVXHe-9" target="VYU8mX6tBPfPcrQHVXHe-4">
          <mxGeometry relative="1" as="geometry" />
        </mxCell>
        <mxCell id="VYU8mX6tBPfPcrQHVXHe-9" value="&lt;b&gt;+&lt;/b&gt;" style="ellipse;whiteSpace=wrap;html=1;" vertex="1" parent="1">
          <mxGeometry x="310" y="180" width="20" height="20" as="geometry" />
        </mxCell>
        <mxCell id="VYU8mX6tBPfPcrQHVXHe-11" value="&lt;b style=&quot;border-color: var(--border-color);&quot;&gt;X&lt;/b&gt;" style="text;html=1;strokeColor=none;fillColor=none;align=center;verticalAlign=middle;whiteSpace=wrap;rounded=0;" vertex="1" parent="1">
          <mxGeometry x="160" y="80" width="30" height="30" as="geometry" />
        </mxCell>
        <mxCell id="VYU8mX6tBPfPcrQHVXHe-12" value="&lt;b style=&quot;border-color: var(--border-color);&quot;&gt;Y&lt;/b&gt;" style="text;html=1;strokeColor=none;fillColor=none;align=center;verticalAlign=middle;whiteSpace=wrap;rounded=0;" vertex="1" parent="1">
          <mxGeometry x="160" y="160" width="30" height="30" as="geometry" />
        </mxCell>
        <mxCell id="VYU8mX6tBPfPcrQHVXHe-13" value="&lt;b style=&quot;border-color: var(--border-color);&quot;&gt;Z&lt;/b&gt;" style="text;html=1;strokeColor=none;fillColor=none;align=center;verticalAlign=middle;whiteSpace=wrap;rounded=0;" vertex="1" parent="1">
          <mxGeometry x="160" y="240" width="30" height="30" as="geometry" />
        </mxCell>
        <mxCell id="VYU8mX6tBPfPcrQHVXHe-14" value="&lt;b style=&quot;border-color: var(--border-color);&quot;&gt;X+Y+Z&lt;/b&gt;" style="text;html=1;strokeColor=none;fillColor=none;align=center;verticalAlign=middle;whiteSpace=wrap;rounded=0;" vertex="1" parent="1">
          <mxGeometry x="360" y="160" width="50" height="30" as="geometry" />
        </mxCell>
        <mxCell id="VYU8mX6tBPfPcrQHVXHe-21" style="edgeStyle=orthogonalEdgeStyle;rounded=0;orthogonalLoop=1;jettySize=auto;html=1;exitX=1;exitY=0.5;exitDx=0;exitDy=0;entryX=0;entryY=0.5;entryDx=0;entryDy=0;" edge="1" parent="1" source="VYU8mX6tBPfPcrQHVXHe-15" target="VYU8mX6tBPfPcrQHVXHe-18">
          <mxGeometry relative="1" as="geometry" />
        </mxCell>
        <mxCell id="VYU8mX6tBPfPcrQHVXHe-15" value="" style="rounded=0;whiteSpace=wrap;html=1;fillColor=#ffe6cc;strokeColor=#d79b00;" vertex="1" parent="1">
          <mxGeometry x="520" y="160" width="120" height="60" as="geometry" />
        </mxCell>
        <mxCell id="VYU8mX6tBPfPcrQHVXHe-16" value="&lt;b&gt;x&lt;/b&gt;" style="ellipse;whiteSpace=wrap;html=1;" vertex="1" parent="1">
          <mxGeometry x="490" y="180" width="20" height="20" as="geometry" />
        </mxCell>
        <mxCell id="VYU8mX6tBPfPcrQHVXHe-17" value="&lt;b style=&quot;border-color: var(--border-color);&quot;&gt;X+Y+Z&lt;/b&gt;" style="text;html=1;strokeColor=none;fillColor=none;align=center;verticalAlign=middle;whiteSpace=wrap;rounded=0;" vertex="1" parent="1">
          <mxGeometry x="520" y="160" width="50" height="30" as="geometry" />
        </mxCell>
        <mxCell id="VYU8mX6tBPfPcrQHVXHe-18" value="" style="rounded=0;whiteSpace=wrap;html=1;fillColor=#f8cecc;strokeColor=#b85450;" vertex="1" parent="1">
          <mxGeometry x="680" y="160" width="20" height="60" as="geometry" />
        </mxCell>
        <mxCell id="VYU8mX6tBPfPcrQHVXHe-23" value="" style="rounded=0;whiteSpace=wrap;html=1;fillColor=#f8cecc;strokeColor=#b85450;" vertex="1" parent="1">
          <mxGeometry x="450.5" y="320" width="20" height="60" as="geometry" />
        </mxCell>
        <mxCell id="VYU8mX6tBPfPcrQHVXHe-29" value="&lt;font style=&quot;font-size: 14px;&quot;&gt;Min(&lt;/font&gt;" style="text;html=1;strokeColor=none;fillColor=none;align=center;verticalAlign=middle;whiteSpace=wrap;rounded=0;" vertex="1" parent="1">
          <mxGeometry x="417.5" y="335" width="30" height="30" as="geometry" />
        </mxCell>
        <mxCell id="VYU8mX6tBPfPcrQHVXHe-30" value="&lt;font style=&quot;font-size: 14px;&quot;&gt;)&lt;/font&gt;" style="text;html=1;strokeColor=none;fillColor=none;align=center;verticalAlign=middle;whiteSpace=wrap;rounded=0;" vertex="1" parent="1">
          <mxGeometry x="470.5" y="335" width="10" height="30" as="geometry" />
        </mxCell>
        <mxCell id="VYU8mX6tBPfPcrQHVXHe-32" value="&lt;font style=&quot;font-size: 14px;&quot;&gt;/1000 - mean(&lt;/font&gt;" style="text;html=1;strokeColor=none;fillColor=none;align=center;verticalAlign=middle;whiteSpace=wrap;rounded=0;" vertex="1" parent="1">
          <mxGeometry x="476.5" y="336" width="91" height="30" as="geometry" />
        </mxCell>
        <mxCell id="VYU8mX6tBPfPcrQHVXHe-33" value="" style="rounded=0;whiteSpace=wrap;html=1;fillColor=#ffe6cc;strokeColor=#d79b00;" vertex="1" parent="1">
          <mxGeometry x="567.5" y="320" width="120" height="60" as="geometry" />
        </mxCell>
        <mxCell id="VYU8mX6tBPfPcrQHVXHe-34" value="&lt;b style=&quot;border-color: var(--border-color);&quot;&gt;X+Y+Z&lt;/b&gt;" style="text;html=1;strokeColor=none;fillColor=none;align=center;verticalAlign=middle;whiteSpace=wrap;rounded=0;" vertex="1" parent="1">
          <mxGeometry x="567.5" y="320" width="50" height="30" as="geometry" />
        </mxCell>
        <mxCell id="VYU8mX6tBPfPcrQHVXHe-35" value="&lt;font style=&quot;font-size: 14px;&quot;&gt;)&lt;sup&gt;2&lt;/sup&gt;&lt;/font&gt;" style="text;html=1;strokeColor=none;fillColor=none;align=center;verticalAlign=middle;whiteSpace=wrap;rounded=0;" vertex="1" parent="1">
          <mxGeometry x="690" y="335" width="10" height="30" as="geometry" />
        </mxCell>
        <mxCell id="VYU8mX6tBPfPcrQHVXHe-36" value="&lt;b style=&quot;border-color: var(--border-color);&quot;&gt;(X+Y+Z) x (&lt;b style=&quot;border-color: var(--border-color);&quot;&gt;X+Y+Z&lt;/b&gt;)&lt;/b&gt;" style="text;html=1;strokeColor=none;fillColor=none;align=center;verticalAlign=middle;whiteSpace=wrap;rounded=0;" vertex="1" parent="1">
          <mxGeometry x="634.5" y="120" width="111" height="30" as="geometry" />
        </mxCell>
        <mxCell id="VYU8mX6tBPfPcrQHVXHe-38" value="&lt;font style=&quot;font-size: 14px;&quot;&gt;&lt;b&gt;Estimated variance:&lt;/b&gt;&lt;/font&gt;" style="text;html=1;strokeColor=none;fillColor=none;align=center;verticalAlign=middle;whiteSpace=wrap;rounded=0;" vertex="1" parent="1">
          <mxGeometry x="273.75" y="335" width="140" height="30" as="geometry" />
        </mxCell>
      </root>
    </mxGraphModel>
  </diagram>
</mxfile>
